<svg width="32" height="32" viewBox="0 0 32 32" fill="none" xmlns="http://www.w3.org/2000/svg">
<path d="M16 32C24.8366 32 32 24.8366 32 16C32 7.16344 24.8366 0 16 0C7.16344 0 0 7.16344 0 16C0 24.8366 7.16344 32 16 32Z" fill="#6DA544"/>
<path d="M16.0001 6.26089L29.2175 16L16.0001 25.7391L2.78271 16L16.0001 6.26089Z" fill="#FFDA44"/>
<path d="M16 21.5652C19.0736 21.5652 21.5652 19.0736 21.5652 16C21.5652 12.9264 19.0736 10.4348 16 10.4348C12.9264 10.4348 10.4348 12.9264 10.4348 16C10.4348 19.0736 12.9264 21.5652 16 21.5652Z" fill="#F0F0F0"/>
<path d="M13.2173 15.6522C12.2496 15.6522 11.3156 15.7994 10.4365 16.0725C10.4755 19.1125 12.9507 21.5653 16 21.5653C17.8855 21.5653 19.5507 20.6267 20.5574 19.1922C18.8351 17.0362 16.185 15.6522 13.2173 15.6522Z" fill="#0052B4"/>
<path d="M21.2426 17.2981C21.3096 16.9529 21.3458 16.5967 21.3458 16.2319C21.3458 13.1582 18.8542 10.6667 15.7806 10.6667C13.4873 10.6667 11.5185 12.0542 10.6665 14.0354C11.4196 13.8793 12.1994 13.7971 12.9981 13.7971C16.2304 13.797 19.1545 15.1407 21.2426 17.2981Z" fill="#0052B4"/>
</svg>
