<svg width="48" height="48" viewBox="0 0 48 48" fill="none" xmlns="http://www.w3.org/2000/svg">
<circle cx="24" cy="24" r="24" fill="#45D65D"/>
<path d="M9.63831 38.3616L11.658 30.9864C10.4122 28.8278 9.75687 26.3792 9.75778 23.8707C9.76099 16.023 16.1473 9.63837 23.9947 9.63837C27.8029 9.63997 31.3773 11.1222 34.0653 13.8125C36.7531 16.5027 38.2328 20.0788 38.2314 23.8821C38.228 31.7295 31.8408 38.1151 23.9947 38.1151C23.9943 38.1151 23.9949 38.1151 23.9947 38.1151H23.9885C21.6059 38.1142 19.2649 37.5166 17.1855 36.3825L9.63831 38.3616ZM17.535 33.8059L17.9673 34.0621C19.7837 35.1401 21.8663 35.7102 23.9901 35.7114H23.9947C30.5165 35.7114 35.8247 30.4041 35.8275 23.8812C35.8286 20.7201 34.599 17.7476 32.3649 15.5117C30.1306 13.2757 27.1599 12.0437 23.9991 12.0423C17.472 12.0423 12.164 17.3489 12.1615 23.8716C12.1606 26.1068 12.7859 28.2835 13.9706 30.1672L14.2521 30.6149L13.0564 34.9801L17.535 33.8059Z" fill="white"/>
<path d="M9.63831 38.3616L11.658 30.9864C10.4122 28.8278 9.75687 26.3792 9.75778 23.8707C9.76099 16.023 16.1473 9.63837 23.9947 9.63837C27.8029 9.63997 31.3773 11.1222 34.0653 13.8125C36.7531 16.5027 38.2328 20.0788 38.2314 23.8821C38.228 31.7295 31.8408 38.1151 23.9947 38.1151C23.9943 38.1151 23.9949 38.1151 23.9947 38.1151H23.9885C21.6059 38.1142 19.2649 37.5166 17.1855 36.3825L9.63831 38.3616ZM17.535 33.8059L17.9673 34.0621C19.7837 35.1401 21.8663 35.7102 23.9901 35.7114H23.9947C30.5165 35.7114 35.8247 30.4041 35.8275 23.8812C35.8286 20.7201 34.599 17.7476 32.3649 15.5117C30.1306 13.2757 27.1599 12.0437 23.9991 12.0423C17.472 12.0423 12.164 17.3489 12.1615 23.8716C12.1606 26.1068 12.7859 28.2835 13.9706 30.1672L14.2521 30.6149L13.0564 34.9801L17.535 33.8059Z" fill="white"/>
<path fill-rule="evenodd" clip-rule="evenodd" d="M20.4364 17.9207C20.17 17.3283 19.8894 17.3164 19.6358 17.3061C19.4284 17.2972 19.1911 17.2977 18.9542 17.2977C18.7171 17.2977 18.3316 17.3869 18.0057 17.7428C17.6796 18.0988 16.7604 18.9594 16.7604 20.7096C16.7604 22.4601 18.0352 24.1513 18.2131 24.3889C18.3909 24.6263 20.674 28.3328 24.2897 29.7587C27.2946 30.9439 27.906 30.7082 28.5583 30.6489C29.2106 30.5896 30.6629 29.7883 30.9593 28.9577C31.2559 28.127 31.2559 27.4152 31.1669 27.2662C31.0778 27.1181 30.8407 27.0291 30.485 26.8512C30.1293 26.6734 28.3805 25.8126 28.0543 25.694C27.7281 25.5752 27.491 25.5162 27.2539 25.8723C27.0165 26.228 26.3354 27.0291 26.1278 27.2662C25.9202 27.504 25.7126 27.5338 25.3569 27.3557C25.0012 27.1774 23.8555 26.802 22.4964 25.5901C21.4389 24.6473 20.7248 23.4828 20.5172 23.1266C20.3099 22.771 20.5138 22.5952 20.6736 22.4008C20.9613 22.0509 21.444 21.4217 21.5625 21.1846C21.6811 20.947 21.6218 20.7394 21.533 20.5613C21.444 20.3835 20.7525 18.6243 20.4364 17.9207V17.9207Z" fill="white"/>
</svg>
